<svg width="67" height="67" viewBox="0 0 67 67" fill="none" xmlns="http://www.w3.org/2000/svg">
<path d="M0.333496 28.2384C0.333496 43.4154 12.6783 55.7492 27.8386 55.7492C34.8232 55.7492 41.2122 53.1226 46.0716 48.8173L63.6007 66.35C63.9256 66.6749 64.3452 66.8374 64.7783 66.8374C65.2115 66.8374 65.6311 66.6749 65.956 66.35C66.6057 65.7001 66.6057 64.6577 65.956 64.0078L48.4133 46.4751C52.7178 41.6147 55.3437 35.2379 55.3437 28.2384C55.3437 13.0615 42.9989 0.727646 27.8386 0.727646C12.6783 0.727646 0.333496 13.0615 0.333496 28.2384ZM52.0274 28.2384C52.0274 41.5741 41.1716 52.4322 27.8386 52.4322C14.5057 52.4322 3.64981 41.5741 3.64981 28.2384C3.64981 14.9027 14.5057 4.04464 27.8386 4.04464C41.1716 4.04464 52.0274 14.8892 52.0274 28.2384Z" fill="black" fill-opacity="0.24"/>
<path d="M46.4252 48.4638L46.0924 48.1309L45.74 48.4431C40.9678 52.6711 34.6955 55.2492 27.8386 55.2492C12.9544 55.2492 0.833496 43.1391 0.833496 28.2384C0.833496 13.3377 12.9544 1.22765 27.8386 1.22765C42.7228 1.22765 54.8437 13.3377 54.8437 28.2384C54.8437 35.1102 52.2663 41.3704 48.039 46.1436L47.7269 46.496L48.0599 46.8288L65.6024 64.3613C65.6024 64.3614 65.6024 64.3614 65.6025 64.3614C66.0569 64.816 66.0569 65.5419 65.6024 65.9965C65.3745 66.2244 65.0835 66.3374 64.7783 66.3374C64.4732 66.3374 64.1822 66.2244 63.9543 65.9965L46.4252 48.4638ZM27.8386 52.9322C41.4478 52.9322 52.5274 41.8501 52.5274 28.2384C52.5274 14.613 41.4476 3.54464 27.8386 3.54464C14.2294 3.54464 3.14981 14.6267 3.14981 28.2384C3.14981 41.8501 14.2294 52.9322 27.8386 52.9322Z" stroke="black" stroke-opacity="0.16"/>
</svg>
